<svg xmlns="http://www.w3.org/2000/svg" viewBox="0 0 1440 120" preserveAspectRatio="none">
  <rect width="1440" height="120" fill="#070606" />
    <path d="M 0,5 C 96,14.307345720721598 192,23.614691441443195 288,27.381850490852496 C 384,31.149009540261797 480,29.375981918358782 576,28.534292836529932 C 672,27.692603754701082 767.9999999999999,27.78225321294639 864,27.627537619265762 C 960.0000000000001,27.472822025585135 1056,27.07374137997858 1152,23.26175760144663 C 1248,19.44977382291468 1344,12.22488691145734 1440,5 L 1440,120 L 0,120 Z" fill="#1a1a1a" opacity="0.55" />
    <path d="M 0,23 C 96,40.0036156711435 192,57.007231342286985 288,63.41700612934877 C 384,69.82678091641056 480,65.64271481939065 576,67.04032208182804 C 672,68.43792934426543 767.9999999999999,75.41720996616016 864,68.10730704549374 C 960.0000000000001,60.79740412482732 1056,39.19831766159973 1152,29.29890256359058 C 1248,19.39948746558143 1344,21.199743732790715 1440,23 L 1440,120 L 0,120 Z" fill="#1a1a1a" opacity="1" />
</svg>