<svg xmlns="http://www.w3.org/2000/svg" viewBox="0 0 1440 120" preserveAspectRatio="none">
  <rect width="1440" height="120" fill="#faf8f5" />
    <path d="M 0,5 C 120,16.558075375835838 240,28.116150751671675 360,38.55156934490799 C 480,48.9869879381443 600,58.29974974878108 720,61.079887081198294 C 840,63.860024413615506 960,60.10753726781311 1080,49.672118674576794 C 1200,39.23670008134048 1320,22.11835004067024 1440,5 L 1440,120 L 0,120 Z" fill="#070606" opacity="0.55" />
    <path d="M 0,23 C 120,47.96260015307344 240,72.92520030614688 360,75.79462533045985 C 480,78.66405035477283 600,59.44030025032532 720,50.550859505972696 C 840,41.66141876162007 960,43.106287377362314 1080,43.50381618014887 C 1200,43.90134498293542 1320,43.251533972766275 1440,42.60172296259713 L 1440,120 L 0,120 Z" fill="#070606" opacity="1" />
</svg>