<svg xmlns="http://www.w3.org/2000/svg" viewBox="0 0 1440 120" preserveAspectRatio="none">
  <rect width="1440" height="120" fill="#1a1a1a" />
    <path d="M 0,5 C 96,3.018535735943848 192,1.037071471887696 288,9.862813366428348 C 384,18.688555260969 480,38.32150331410648 576,49.254802670699966 C 672,60.18810202729345 767.9999999999999,62.42175268734291 864,53.412956271372366 C 960.0000000000001,44.40415985540182 1056,24.1529163634113 1152,18.516554604278976 C 1248,12.880192845146654 1344,21.858712818872537 1440,30.83723279259842 L 1440,120 L 0,120 Z" fill="#070606" opacity="0.55" />
    <path d="M 0,23 C 96,36.09549342637358 192,49.19098685274715 288,51.55292900347613 C 384,53.91487115420511 480,45.54326202928947 576,42.03801870993537 C 672,38.53277539058127 767.9999999999999,39.89389787678872 864,47.33616964169805 C 960.0000000000001,54.77844140660738 1056,68.3018624502186 1152,68.57168983458888 C 1248,68.84151721895917 1344,55.8577509440885 1440,42.87398466921783 L 1440,120 L 0,120 Z" fill="#070606" opacity="1" />
</svg>