<svg xmlns="http://www.w3.org/2000/svg" viewBox="0 0 1440 120" preserveAspectRatio="none">
  <rect width="1440" height="120" fill="#1a1a1a" />
    <path d="M 0,5 C 80,23.053696391205126 160,41.10739278241025 240,46.703151150330115 C 320,52.29890951824998 400,45.43672986288462 480,48.96660150514397 C 560,52.49647314740332 640,66.41839608728736 720,67.95740360855814 C 800,69.49641112982891 880.0000000000002,58.65250323248643 960,55.187672783094925 C 1039.9999999999998,51.72284233370342 1120,55.637089332262875 1200,48.502323443072214 C 1280,41.367557553881554 1360,23.183778776940777 1440,5 L 1440,120 L 0,120 Z" fill="#070606" opacity="0.55" />
    <path d="M 0,23 C 80,28.969222132835586 160,34.93844426567117 240,37.02519921010844 C 320,39.11195415454571 400,37.31624191058467 480,41.80745777749058 C 560,46.298673644396494 640,57.07681762216938 720,58.97172751144667 C 800,60.86663740072397 880.0000000000002,53.87831320150569 960,53.908584357152556 C 1039.9999999999998,53.93885551279942 1120,60.98772202331144 1200,57.006057189596866 C 1280,53.02439235588229 1360,38.01219617794115 1440,23 L 1440,120 L 0,120 Z" fill="#070606" opacity="1" />
</svg>