<svg xmlns="http://www.w3.org/2000/svg" viewBox="0 0 1440 130" preserveAspectRatio="none">
  <rect width="1440" height="130" fill="#1a1a1a" />
    <path d="M 0,5 C 96,10.78129479947068 192,16.56258959894136 288,21.380823265752422 C 384,26.199056932563483 480,30.0542294667149 576,33.80173628042144 C 672,37.549243094127974 767.9999999999999,41.18908418738965 864,51.079851622120295 C 960.0000000000001,60.970619056850936 1056,77.1123128330506 1152,70.47415861960872 C 1248,63.836004406166836 1344,34.41800220308342 1440,5 L 1440,130 L 0,130 Z" fill="#070606" opacity="0.55" />
    <path d="M 0,24.5 C 96,39.4333502501025 192,54.366700500205 288,66.56964207026874 C 384,78.77258364033248 480,88.24511653035744 576,80.01814318072246 C 672,71.79116983108749 767.9999999999999,45.86469024179257 864,44.170741308587324 C 960.0000000000001,42.476792375382075 1056,65.01537409826652 1152,65.77567232285024 C 1248,66.53597054743396 1344,45.51798527371698 1440,24.5 L 1440,130 L 0,130 Z" fill="#070606" opacity="0.65" />
    <path d="M 0,44 C 96,49.33316236463929 192,54.66632472927858 288,58.77596912779087 C 384,62.88561352630317 480,65.77173995868843 576,71.49617298467004 C 672,77.22060601065165 767.9999999999999,85.78334563022969 864,85.35820100776961 C 960.0000000000001,84.93305638530953 1056,75.52002752081142 1152,67.12901331251014 C 1248,58.73799910420886 1344,51.36899955210443 1440,44 L 1440,130 L 0,130 Z" fill="#070606" opacity="1" />
</svg>