<svg xmlns="http://www.w3.org/2000/svg" viewBox="0 0 1440 140" preserveAspectRatio="none">
  <rect width="1440" height="140" fill="#070606" />
    <path d="M 0,5 C 68.57142857142858,23.773529148855825 137.14285714285717,42.54705829771165 205.71428571428572,42.97733815336993 C 274.2857142857143,43.407618009028205 342.85714285714283,25.49464857148893 411.42857142857144,28.018233774873377 C 480.00000000000006,30.541818978257822 548.5714285714288,53.501958822565996 617.1428571428571,57.64914122055705 C 685.7142857142854,61.7963236185481 754.2857142857142,47.13054857022202 822.8571428571429,46.4690998708964 C 891.4285714285716,45.80765117157078 960,59.15052882124566 1028.5714285714287,54.245595005264796 C 1097.1428571428573,49.340661189283935 1165.7142857142858,26.187915907647312 1234.2857142857142,14.939014829160554 C 1302.8571428571427,3.690113750673795 1371.4285714285713,4.345056875336898 1440,5 L 1440,140 L 0,140 Z" fill="#1a1a1a" opacity="0.55" />
    <path d="M 0,26 C 68.57142857142858,24.8418131359778 137.14285714285717,23.683626271955603 205.71428571428572,35.19570138434433 C 274.2857142857143,46.70777649673306 342.85714285714283,70.89011358553273 411.42857142857144,74.47005239502361 C 480.00000000000006,78.0499912045145 548.5714285714288,61.027531734696545 617.1428571428571,52.32564529419126 C 685.7142857142854,43.62375885368598 754.2857142857142,43.24244544249338 822.8571428571429,49.002675675637065 C 891.4285714285716,54.76290590878075 960,66.66467978626069 1028.5714285714287,64.4374197516363 C 1097.1428571428573,62.210159717011905 1165.7142857142858,45.85386577028318 1234.2857142857142,37.09279015965974 C 1302.8571428571427,28.331714549036306 1371.4285714285713,27.165857274518153 1440,26 L 1440,140 L 0,140 Z" fill="#1a1a1a" opacity="0.65" />
    <path d="M 0,47 C 68.57142857142858,59.68788355867841 137.14285714285717,72.37576711735682 205.71428571428572,74.50714920125834 C 274.2857142857143,76.63853128515987 342.85714285714283,68.2134118942846 411.42857142857144,70.3941383108476 C 480.00000000000006,72.57486472741058 548.5714285714288,85.36143695141185 617.1428571428571,91.39898322571648 C 685.7142857142854,97.43652950002111 754.2857142857142,96.72504982462902 822.8571428571429,93.12255360768157 C 891.4285714285716,89.52005739073411 960,83.02654463223129 1028.5714285714287,75.60877262429558 C 1097.1428571428573,68.19100061635987 1165.7142857142858,59.84896935899134 1234.2857142857142,58.17577634199327 C 1302.8571428571427,56.5025833249952 1371.4285714285713,61.4982285483676 1440,66.49387377174 L 1440,140 L 0,140 Z" fill="#1a1a1a" opacity="1" />
</svg>