<svg xmlns="http://www.w3.org/2000/svg" viewBox="0 0 1440 130" preserveAspectRatio="none">
  <rect width="1440" height="130" fill="#070606" />
    <path d="M 0,5 C 80,21.334458288350465 160,37.66891657670093 240,47.797490365614635 C 320,57.92606415452834 400,61.84875344400531 480,67.06164740492983 C 560,72.27454136585435 640,78.7776399982264 720,73.54949863958126 C 800,68.32135728093611 880.0000000000002,51.36197593127376 960,41.06466293243434 C 1039.9999999999998,30.767349933594915 1120,27.132105285578408 1200,22.23167285530984 C 1280,17.33124042504127 1360,11.165620212520635 1440,5 L 1440,130 L 0,130 Z" fill="#1a1a1a" opacity="0.55" />
    <path d="M 0,24.5 C 80,29.90263273266145 160,35.3052654653229 240,41.249518010532036 C 320,47.193770555741175 400,53.679642913497986 480,59.3622057179215 C 560,65.04476852234501 640,69.92402177343519 720,66.3448758431197 C 800,62.7657299128042 880.0000000000002,50.728184801083 960,45.04122682838076 C 1039.9999999999998,39.35426885567851 1120,40.01789802199522 1200,37.65279140710159 C 1280,35.287684792207955 1360,29.893842396103977 1440,24.5 L 1440,130 L 0,130 Z" fill="#1a1a1a" opacity="0.65" />
    <path d="M 0,44 C 80,58.28390980244909 160,72.56781960489818 240,73.94578281039911 C 320,75.32374601590004 400,63.79576262445284 480,59.55632013392436 C 560,55.31687764339588 640,58.36597605378613 720,66.13761458093079 C 800,73.90925310807545 880.0000000000002,86.40343175197447 960,83.67304249708036 C 1039.9999999999998,80.94265324218625 1120,62.98769608849895 1200,53.89018339746649 C 1280,44.79267070643402 1360,44.552602478056386 1440,44.312534249678755 L 1440,130 L 0,130 Z" fill="#1a1a1a" opacity="1" />
</svg>