<svg xmlns="http://www.w3.org/2000/svg" viewBox="0 0 1440 120" preserveAspectRatio="none">
  <rect width="1440" height="120" fill="#070606" />
    <path d="M 0,5 C 96,7.307880450873709 192,9.615760901747418 288,16.13220362002938 C 384,22.64864633831134 480,33.373651324001536 576,38.89674587178919 C 672,44.41984041957685 767.9999999999999,44.74102452946196 864,40.552418037965026 C 960.0000000000001,36.36381154646809 1056,27.665414453589143 1152,21.450566379752118 C 1248,15.235718305915093 1344,11.504419251119991 1440,7.773120196324891 L 1440,120 L 0,120 Z" fill="#faf8f5" opacity="0.55" />
    <path d="M 0,23 C 96,35.31644288056732 192,47.632885761134645 288,56.56844120635695 C 384,65.50399665157926 480,71.05866466145656 576,77.75157329129584 C 672,84.44448192113512 767.9999999999999,92.27563117093636 864,81.04773907546127 C 960.0000000000001,69.81984697998617 1056,39.53291353923474 1152,26.918899234478307 C 1248,14.304884929721876 1344,19.363789760960444 1440,24.422694592199008 L 1440,120 L 0,120 Z" fill="#faf8f5" opacity="1" />
</svg>